<?xml version="1.0" encoding="UTF-8" standalone="no"?>
<svg
   xmlns:dc="http://purl.org/dc/elements/1.1/"
   xmlns:cc="http://creativecommons.org/ns#"
   xmlns:rdf="http://www.w3.org/1999/02/22-rdf-syntax-ns#"
   xmlns:svg="http://www.w3.org/2000/svg"
   xmlns="http://www.w3.org/2000/svg"
   xmlns:sodipodi="http://sodipodi.sourceforge.net/DTD/sodipodi-0.dtd"
   xmlns:inkscape="http://www.inkscape.org/namespaces/inkscape"
   version="1.1"
   id="DH-NL-RGB-Comp"
   x="0px"
   y="0px"
   viewBox="0 0 476.47601 458.40001"
   xml:space="preserve"
   sodipodi:docname="dh.svg"
   width="476.47601"
   height="458.39999"
   inkscape:version="1.0.2 (e86c870879, 2021-01-15, custom)"><metadata
   id="metadata448"><rdf:RDF><cc:Work
       rdf:about=""><dc:format>image/svg+xml</dc:format><dc:type
         rdf:resource="http://purl.org/dc/dcmitype/StillImage" /><dc:title></dc:title></cc:Work></rdf:RDF></metadata><defs
   id="defs446" /><sodipodi:namedview
   pagecolor="#ffffff"
   bordercolor="#666666"
   borderopacity="1"
   objecttolerance="10"
   gridtolerance="10"
   guidetolerance="10"
   inkscape:pageopacity="0"
   inkscape:pageshadow="2"
   inkscape:window-width="1920"
   inkscape:window-height="1017"
   id="namedview444"
   showgrid="false"
   fit-margin-top="0"
   fit-margin-left="0"
   fit-margin-right="0"
   fit-margin-bottom="0"
   inkscape:zoom="0.8295542"
   inkscape:cx="-13.840927"
   inkscape:cy="236.82392"
   inkscape:window-x="-8"
   inkscape:window-y="-8"
   inkscape:window-maximized="1"
   inkscape:current-layer="g441" />
<style
   type="text/css"
   id="style243">
	.st0{fill:none;}
	.st1{fill:#155429;}
	.st2{fill:#1D6B34;}
	.st3{fill:#FFFFFF;}
	.st4{fill:#E3C029;}
	.st5{fill:#D2AD15;}
	.st6{fill:url(#SVGID_1_);}
	.st7{fill:#EFD544;}
	.st8{fill:#B98F16;}
	.st9{fill:#F6E477;}
	.st10{fill:url(#SVGID_2_);}
	.st11{fill:#4B4B4B;}
	.st12{fill:#636363;}
</style>
<g
   id="g441"
   transform="translate(-111.512,-115.4)">
	<rect
   x="0"
   y="0"
   class="st0"
   width="703"
   height="674.59998"
   id="rect245" />
	<g
   id="g439">
		<path
   class="st1"
   d="m 161.5,481 c -8.3,0 -16.6,0.4 -22,0.4 h -8.4 v 7.8 c 2.6,0.6 5.7,1.1 8.7,1.3 v 49.3 c -3,0.2 -6.1,0.7 -8.7,1.3 v 7.8 h 8.7 c 3.3,0 11.7,0.4 18.7,0.4 22,0 37.2,-12.1 37.2,-35.3 0,-23.6 -13.3,-33 -34.2,-33 z m -1.8,57.5 c -2.5,0 -5.3,-0.1 -7.2,-0.4 V 492 c 2.1,-0.2 5.1,-0.3 8.1,-0.3 15.6,0 21.5,8.7 21.5,23.4 0,16.2 -9.3,23.4 -22.4,23.4 z m 66.7,-40.3 c -14.7,0 -23.4,11.4 -23.4,26.3 0,17.5 8.7,25.4 24.5,25.4 5.9,0 12.2,-1.1 17.8,-3 l -1.3,-9.3 c -5.1,1.7 -10.1,2.6 -15,2.6 -9.3,0 -13.3,-4.7 -13.4,-13.6 h 31 c 0,0 0.4,-3.6 0.4,-7.3 0,-11.8 -6.1,-21.1 -20.6,-21.1 z m -10.7,20.1 c 0.7,-6.8 4.7,-10.8 10.1,-10.8 5.5,0 9,3.7 8.8,10.8 z m 73.1,-20.1 c -8.2,0 -14,4.1 -17,10.1 l -0.1,-0.1 c 0.5,-2.7 0.7,-6.7 0.7,-9.1 -6.6,-0.2 -14.2,0.1 -20.5,0.9 v 7.7 c 2.9,0.2 6.3,0.6 8.7,1 V 549 h 12.5 v -24 c 0,-8.9 5.1,-16.3 11.7,-16.3 4.9,0 6.4,3.2 6.4,8.5 V 549 h 12.4 v -35 c 0,-8.7 -3.6,-15.8 -14.8,-15.8 z m 220.5,17.5 c 0,-11 -4.8,-17.5 -20.1,-17.5 -6.1,0 -13,1.5 -18.5,3.5 l 1.9,9.4 c 4.8,-1.9 10.6,-3.3 15.1,-3.3 6.7,0 9,2.8 9,8.7 v 2.1 c -17.4,0 -28.8,5.6 -28.8,17.3 0,8.1 5.3,14.1 14.2,14.1 7.5,0 13.6,-4 16,-9.6 l 0.1,0.1 c -0.4,2.6 -0.5,5.6 -0.5,8.6 6.4,0.2 14,-0.1 20.3,-0.9 v -7.7 c -2.9,-0.2 -6.3,-0.6 -8.7,-1 z m -12.6,12.6 c 0,5.9 -4.2,12.1 -10.6,12.1 -3.8,0 -6.1,-2.6 -6.1,-6 0,-4.3 3.6,-7.6 16.7,-7.6 z m 53.2,-30 c -17.5,0 -27.1,11.5 -27.1,28.3 0,15.2 6.6,23.3 18.5,23.3 6.6,0 12.2,-3.6 14.8,-9.4 l 0.2,0.1 c -0.5,2.6 -0.6,4.8 -0.6,7.3 v 3.1 c 0,8.5 -4.5,12.3 -14,12.3 -4.9,0 -10.3,-0.9 -14.7,-2.5 l -1.2,11.3 c 4.2,1 9.6,1.7 15.2,1.7 18.9,0 27,-8.9 27,-24 v -50 c -5.4,-0.9 -11.2,-1.5 -18.1,-1.5 z m 5.7,24.7 c 0,8.7 -4.1,16.6 -11,16.6 -5.9,0 -8.7,-4.8 -8.7,-14.1 0,-12.5 5.3,-17.2 12.8,-17.2 2.5,0 4.7,0.3 6.9,0.8 z M 378.7,489.4 c 2.3,0.5 5,0.9 7.4,1.1 v 18 H 357 v -18 c 2.4,-0.2 5.1,-0.6 7.4,-1.1 v -8 h -27.8 v 7.8 c 2.6,0.6 5.7,1.1 8.7,1.3 v 49.3 c -3,0.2 -6.1,0.7 -8.7,1.3 v 7.8 h 27.8 v -8 c -2.3,-0.5 -5,-0.9 -7.4,-1.1 v -20.3 h 29.1 v 20.3 c -2.4,0.2 -5.1,0.6 -7.4,1.1 v 8 h 27.8 v -7.8 c -2.6,-0.6 -5.7,-1.1 -8.7,-1.3 v -49.3 c 3,-0.2 6.1,-0.7 8.7,-1.3 v -7.8 h -27.8 z m 75.5,26.3 c 0,-11 -4.8,-17.5 -20.1,-17.5 -6.1,0 -13,1.5 -18.5,3.5 l 1.9,9.4 c 4.8,-1.9 10.6,-3.3 15.1,-3.3 6.7,0 9,2.8 9,8.7 v 2.1 c -17.4,0 -28.8,5.6 -28.8,17.3 0,8.1 5.3,14.1 14.2,14.1 7.5,0 13.6,-4 16,-9.6 l 0.1,0.1 c -0.4,2.6 -0.5,5.6 -0.5,8.6 6.4,0.2 14,-0.1 20.3,-0.9 v -7.7 c -2.9,-0.2 -6.3,-0.6 -8.7,-1 z m -12.6,12.6 c 0,5.9 -4.2,12.1 -10.6,12.1 -3.8,0 -6.1,-2.6 -6.1,-6 0,-4.3 3.6,-7.6 16.7,-7.6 z"
   id="path247" />
		<g
   id="g437">
			<path
   class="st2"
   d="m 497,385.5 h -86.3 v 48.2 H 497 c 62.8,0 85.9,-4.8 85.9,-4.8 v -48.7 c 0,0 -23.4,5.3 -85.9,5.3 z"
   id="path249" />
			<path
   class="st2"
   d="m 298.8,373.3 15.7,36.8 c 11.6,-0.1 23.4,-0.2 35.4,-0.2 18.2,0 36,0.2 53.3,0.4 v -33.6 l 72.4,-9.4 c 0,0 -10.1,-1.7 -37.4,-3.7 -27.3,-2 -66.6,-1.3 -66.6,-1.3 0,0 -15.8,5.3 -21.8,6.4 -6.1,-1.1 -21.8,-6.4 -21.8,-6.4 0,0 -39,-0.7 -66.3,1.3 -27.3,2 -45.5,4.9 -45.6,4.9 z"
   id="path251" />
			<path
   class="st1"
   d="m 295.3,378 0.1,32.4 c 6.3,-0.1 12.6,-0.2 19.1,-0.3 L 298.8,373.3 216,368.5 v 9.3 c 55.9,-0.2 79.3,0.2 79.3,0.2 z"
   id="path253" />
			<path
   class="st2"
   d="m 287.8,385.5 h -85.3 c -62.5,0 -85.9,-5.3 -85.9,-5.3 v 48.7 c 0,0 23.1,4.8 85.9,4.8 h 85.3 z"
   id="path255" />
			<path
   class="st1"
   d="m 124.2,381.5 c -5.3,-0.7 -7.6,-1.3 -7.6,-1.3 v 48.7 c 0,0 8.3,1.7 28.6,3.1 -13.5,-15.1 -20,-33.9 -21,-50.5 z"
   id="path257" />
			<g
   id="g269">
				<path
   class="st3"
   d="m 145.2,397.2 h 9.2 v 2.9 h -2.5 l 5.8,16.2 c 0.2,0.7 0.4,1.4 0.6,2.1 h 0.1 c 0.2,-0.7 0.3,-1.5 0.6,-2.1 l 5.7,-16.2 h -2.8 v -2.9 h 9 v 2.9 h -2.2 l -8.4,21.6 H 156 l -8.5,-21.6 h -2.1 v -2.9 z"
   id="path259" />
				<path
   class="st3"
   d="m 173.1,418.8 h 2.4 L 175.6,400 H 173 v -2.9 h 11 c 5,0 7.4,2.9 7.4,6.5 0,4.2 -2.7,6.2 -5.8,6.5 v 0.1 c 1.4,0.1 2.3,1.3 3.1,2.7 l 2.7,4.5 c 0.7,1.2 1.4,1.5 2.2,1.5 h 0.9 v 2.9 h -2.3 c -2.1,0 -3,-0.2 -4.4,-2.6 l -3.4,-5.7 c -1,-1.8 -1.5,-2.1 -2.7,-2.1 h -2.1 l -0.1,7.6 h 2.8 v 2.9 h -9.2 z m 9.5,-10.7 c 2.8,0 4.7,-1.5 4.7,-4.1 0,-2.6 -1.6,-4 -4.4,-4 h -3.3 l -0.1,8.1 z"
   id="path261" />
				<path
   class="st3"
   d="M 197.5,418.8 H 200 V 400 h -2.8 v -2.9 h 17.2 l 0.1,6.4 h -3.3 l -0.2,-3.6 h -7 l -0.1,7.6 h 7 v 3.1 h -7 l -0.1,8.1 h 7.5 l 0.3,-4 h 3.3 l -0.3,6.9 h -17.2 v -2.8 z"
   id="path263" />
				<path
   class="st3"
   d="m 218.8,418.8 h 2.5 l 0.1,-18.8 h -2.6 v -2.9 h 11.6 c 7.9,0 12.4,4.6 12.4,11.7 0,7.2 -4.6,12.8 -12.4,12.8 h -11.6 z m 10.4,0 c 6,0 9.3,-3.6 9.3,-9.8 0,-5.5 -3.2,-9 -9.2,-9 h -4 l -0.1,18.8 z"
   id="path265" />
				<path
   class="st3"
   d="m 245.6,418.8 h 2.5 l 0.1,-18.8 h -2.8 v -2.9 h 17.2 l 0.1,6.4 h -3.3 l -0.2,-3.6 h -7.1 l -0.1,7.6 h 7 v 3.1 h -7 l -0.1,8.1 h 7.5 l 0.3,-4 h 3.3 l -0.3,6.9 h -17.2 v -2.8 z"
   id="path267" />
			</g>
			<g
   id="g281">
				<path
   class="st3"
   d="m 435.8,418.8 h 2.4 l 0.1,-18.8 h -2.6 v -2.9 h 10.9 c 5,0 7.4,2.9 7.4,6.5 0,4.2 -2.7,6.2 -5.8,6.5 v 0.1 c 1.4,0.1 2.3,1.3 3.1,2.7 l 2.7,4.5 c 0.7,1.2 1.4,1.5 2.2,1.5 h 0.9 v 2.9 h -2.3 c -2.1,0 -3,-0.2 -4.4,-2.6 l -3.4,-5.7 c -1,-1.8 -1.5,-2.1 -2.7,-2.1 h -2.1 l -0.1,7.6 h 2.8 v 2.9 h -9.2 v -3.1 z m 9.5,-10.7 c 2.8,0 4.7,-1.5 4.7,-4.1 0,-2.6 -1.6,-4 -4.4,-4 h -3.3 l -0.1,8.1 z"
   id="path271" />
				<path
   class="st3"
   d="m 460.1,418.8 h 2.5 l 0.1,-18.8 h -2.8 v -2.9 h 17.2 l 0.1,6.4 H 474 l -0.2,-3.6 h -7.1 l -0.1,7.6 h 7 v 3.1 h -7 l -0.1,8.1 h 7.5 l 0.3,-4 h 3.3 l -0.3,6.9 h -17.2 z"
   id="path273" />
				<path
   class="st3"
   d="m 497.7,404.3 v -3.9 c -0.9,-0.2 -2.3,-0.6 -4.2,-0.6 -5.8,0 -8.9,3.6 -8.9,9.7 0,5.6 3.4,9.5 8.4,9.5 1.7,0 3.5,-0.2 4.4,-0.4 l 0.1,-4.4 h 3.5 l -0.1,6.7 c -1.6,0.5 -4.7,1.2 -7.6,1.2 -8.8,0 -13,-5.5 -13,-12.4 0,-7.6 5.1,-12.9 13.3,-12.9 3.1,0 6,0.7 7.6,1.3 v 6.3 h -3.5 z"
   id="path275" />
				<path
   class="st3"
   d="m 520.3,418.8 h 2.5 l 0.1,-7.9 h -11.4 l -0.1,7.9 h 2.6 v 2.9 h -9 v -2.9 h 2.5 L 507.6,400 H 505 v -2.9 h 9 v 2.9 h -2.5 l -0.1,7.8 h 11.4 l 0.1,-7.8 h -2.6 v -2.9 h 9 v 2.9 h -2.5 l -0.1,18.8 h 2.6 v 2.9 h -9 z"
   id="path277" />
				<path
   class="st3"
   d="m 538.6,418.8 h 2.5 l 0.1,-18.8 h -5.7 l -0.1,3.6 H 532 l 0.1,-6.4 h 22.2 l 0.1,6.4 H 551 l -0.1,-3.6 h -5.6 l -0.1,18.8 h 2.8 v 2.9 h -9.3 v -2.9 z"
   id="path279" />
			</g>
			<g
   id="g295">
				<path
   class="st4"
   d="m 351,165.8 c 23.4,0 41,1.1 52.8,2.3 l 2.7,-21.3 c -11.5,-1 -33.1,-3.5 -56.5,-3.5 -23.7,0 -45.9,2.6 -57.6,3.6 l 2.8,21.6 c 11.5,-1.3 30.2,-2.7 55.8,-2.7 z m 37.3,-9.5 c 0.2,-1.8 2.3,-2.9 5.3,-2.9 0.5,0 0.9,0 1.4,0.1 1.6,0.2 3,0.7 4.1,1.4 1.3,0.8 1.9,1.9 1.7,3 -0.2,1.7 -2.3,2.9 -5.3,2.9 -0.5,0 -0.9,0 -1.4,-0.1 -3.6,-0.5 -6.1,-2.4 -5.8,-4.4 z m -16.2,-5.3 7.2,3.9 -7.4,3.6 -7.2,-3.9 z m -22.7,-0.7 c 3.9,0 6.8,1.7 6.8,3.9 0,2.2 -2.9,3.9 -6.8,3.9 -3.9,0 -6.8,-1.7 -6.8,-3.9 0,-2.3 3,-3.9 6.8,-3.9 z m -22.6,0.7 7.4,3.5 -7.2,3.9 -7.4,-3.6 z m -27,3.8 c 1.1,-0.7 2.5,-1.2 4.1,-1.4 0.5,-0.1 0.9,-0.1 1.4,-0.1 3,0 5.1,1.2 5.3,2.9 0.3,2.1 -2.3,3.9 -5.8,4.4 -0.5,0.1 -0.9,0.1 -1.4,0.1 -3,0 -5.1,-1.2 -5.3,-2.9 -0.2,-1.1 0.4,-2.2 1.7,-3 z"
   id="path283" />
				<g
   id="g291">
					<g
   id="g289">
						<path
   class="st4"
   d="m 355.5,121.1 c 0,-3.1 -2.5,-5.7 -5.7,-5.7 -3.1,0 -5.7,2.5 -5.7,5.7 0,3.1 2.5,5.7 5.7,5.7 3.1,0 5.7,-2.6 5.7,-5.7 z m -60.5,3.8 c 0,-3.1 -2.5,-5.7 -5.7,-5.7 -3.1,0 -5.7,2.5 -5.7,5.7 0,3.1 2.5,5.7 5.7,5.7 3.1,0 5.7,-2.5 5.7,-5.7 z m 48.3,3.2 c -3.1,0 -5.7,2.5 -5.7,5.7 0,3.1 2.5,5.7 5.7,5.7 3.1,0 5.7,-2.5 5.7,-5.7 0,-3.2 -2.6,-5.7 -5.7,-5.7 z m -13,0.9 c -3.1,0 -5.7,2.5 -5.7,5.7 0,3.1 2.5,5.7 5.7,5.7 3.2,0 5.7,-2.5 5.7,-5.7 -0.1,-3.1 -2.6,-5.7 -5.7,-5.7 z m -13.1,1 c -3.1,0 -5.7,2.5 -5.7,5.7 0,3.1 2.5,5.7 5.7,5.7 3.1,0 5.7,-2.5 5.7,-5.7 0,-3.2 -2.5,-5.7 -5.7,-5.7 z m -13,0.9 c -3.1,0 -5.7,2.5 -5.7,5.7 0,3.1 2.5,5.7 5.7,5.7 3.2,0 5.7,-2.5 5.7,-5.7 0,-3.1 -2.5,-5.7 -5.7,-5.7 z m -13,1 c -3.1,0 -5.7,2.5 -5.7,5.7 0,3.1 2.5,5.7 5.7,5.7 3.1,0 5.7,-2.5 5.7,-5.7 0,-3.2 -2.6,-5.7 -5.7,-5.7 z m 65.1,-3.8 c -3.1,0 -5.7,2.5 -5.7,5.7 0,2.5 1.6,4.5 3.7,5.3 l 5.6,-9.7 c -0.9,-0.8 -2.2,-1.3 -3.6,-1.3 z"
   id="path285" />
						<path
   class="st5"
   d="m 410.3,119.3 c -3.1,0 -5.7,2.5 -5.7,5.7 0,3.1 2.5,5.7 5.7,5.7 3.1,0 5.7,-2.5 5.7,-5.7 0,-3.2 -2.6,-5.7 -5.7,-5.7 z m -1.9,12.6 c -3.1,0 -5.7,2.5 -5.7,5.7 0,3.1 2.5,5.7 5.7,5.7 3.1,0 5.7,-2.5 5.7,-5.7 0,-3.2 -2.6,-5.7 -5.7,-5.7 z m -13,-1 c -3.1,0 -5.7,2.5 -5.7,5.7 0,3.1 2.5,5.7 5.7,5.7 3.1,0 5.7,-2.5 5.7,-5.7 -0.1,-3.1 -2.6,-5.7 -5.7,-5.7 z M 382.3,130 c -3.1,0 -5.7,2.5 -5.7,5.7 0,3.1 2.5,5.7 5.7,5.7 3.1,0 5.7,-2.5 5.7,-5.7 0,-3.2 -2.5,-5.7 -5.7,-5.7 z m -13,-1 c -3.1,0 -5.7,2.5 -5.7,5.7 0,3.1 2.5,5.7 5.7,5.7 3.1,0 5.7,-2.5 5.7,-5.7 0,-3.1 -2.5,-5.7 -5.7,-5.7 z m -9.3,0.4 -5.6,9.7 c 0.6,0.2 1.2,0.3 1.9,0.3 3.1,0 5.7,-2.5 5.7,-5.7 0,-1.7 -0.8,-3.3 -2,-4.3 z"
   id="path287" />
					</g>
				</g>
				<path
   class="st5"
   d="m 349.4,158 c -2.3,0 -4.3,-0.6 -5.5,-1.5 l -5.6,9.4 c 4,-0.1 8.2,-0.1 12.6,-0.1 23.4,0 41,1.1 52.8,2.3 l 2.7,-21.3 c -11.2,-1 -31.9,-3.4 -54.6,-3.5 l -4.3,7.2 c 0.6,-0.1 1.2,-0.1 1.9,-0.1 3.9,0 6.8,1.7 6.8,3.9 0,2.1 -2.9,3.7 -6.8,3.7 z m 38.9,-1.7 c 0.2,-1.8 2.3,-2.9 5.3,-2.9 0.5,0 0.9,0 1.4,0.1 1.6,0.2 3,0.7 4.1,1.4 1.3,0.8 1.9,1.9 1.7,3 -0.2,1.7 -2.3,2.9 -5.3,2.9 -0.5,0 -0.9,0 -1.4,-0.1 -3.6,-0.5 -6.1,-2.4 -5.8,-4.4 z m -16.2,-5.3 7.2,3.9 -7.4,3.6 -7.2,-3.9 z"
   id="path293" />
			</g>
			<path
   class="st1"
   d="m 403.2,376.7 v 1.2 h 80.6 v -9.4 c 0,0 -3,-0.5 -8.2,-1.1 z"
   id="path297" />
			<path
   class="st1"
   d="m 577.6,429.8 c 3.6,-0.6 5.2,-0.8 5.2,-0.8 v -48.7 c 0,0 -5.8,1.3 -19.2,2.6 9.2,11 12.8,29.1 14,46.9 z"
   id="path299" />
			<g
   id="g307">
				<g
   id="g305">
					<path
   class="st3"
   d="m 329.8,395.2 h 2.1 L 332,379 h -2.5 v -2.5 h 14.9 l 0.1,5.6 h -2.8 l -0.2,-3.1 h -6.1 l -0.1,6.5 h 6.1 v 2.7 h -6.1 l -0.1,7 h 6.5 l 0.2,-3.5 h 2.8 l -0.2,5.9 h -14.8 v -2.4 z"
   id="path301" />
					<path
   class="st3"
   d="m 348.4,395.2 h 2.1 l 0.1,-16.2 h -2.7 v -2.5 h 5.6 l 9.8,12.8 c 0.6,0.8 1.5,2.2 2.1,3.2 h 0.1 L 365.4,379 H 363 v -2.5 h 7.4 v 2.5 h -2.1 l -0.1,18.7 h -2.8 L 354.9,384 c -0.6,-0.8 -1.2,-1.6 -1.5,-2.2 l -0.1,0.1 0.1,13.5 h 2.3 v 2.5 h -7.4 v -2.7 z"
   id="path303" />
				</g>
			</g>
			
				<linearGradient
   id="SVGID_1_"
   gradientUnits="userSpaceOnUse"
   x1="640.43121"
   y1="334.53201"
   x2="640.43402"
   y2="334.53201"
   gradientTransform="matrix(-1,0,0,1,1142.9727,0)">
				<stop
   offset="0"
   style="stop-color:#B98F16"
   id="stop309" />
				<stop
   offset="1"
   style="stop-color:#D2AD15"
   id="stop311" />
			</linearGradient>
			<polygon
   class="st6"
   points=""
   id="polygon314"
   style="fill:url(#SVGID_1_)" />
			<g
   id="g320">
				<path
   class="st5"
   d="m 577.2,234.4 c 0,-11 -14.7,-7.5 -22.8,-7.5 -8.1,0 -7.5,-10.4 -7.5,-10.4 2.7,0 7.9,0 15.3,0 12.3,0 20.2,7.5 15,17.9 z"
   id="path316" />
				<path
   class="st7"
   d="m 529.6,211.9 c 3.6,-3.6 7.3,-5.6 12.6,-5.6 11.7,0 28.7,-0.7 31,-6.9 2.1,2.2 1.9,6.5 -3.1,11.5 13.2,0 15.5,3 16.9,5.8 3.4,7.3 -2.5,17.7 -9.7,17.7 5.2,-10.4 -2.7,-17.9 -14.9,-17.9 -7.5,0 -12.6,0 -15.3,0 h -2.3 -2.5 c -1.8,0 -3.8,0.9 -5.4,2.6 -3.5,3.5 -3.5,9.1 0,12.6 L 561,256 c 1.5,1.5 2.6,3.3 3.5,5.1 l -40,-30.7 c -1.7,-6.4 0,-13.5 5.1,-18.5 z"
   id="path318" />
			</g>
			<path
   class="st8"
   d="m 500.9,188.1 c -0.2,-0.7 -0.3,-1.4 -0.4,-2.1 3.5,-4.1 9.4,-5.8 17.4,-2.4 10,4.2 19.1,-3.1 19.1,-3.1 -6.9,13.2 -16.4,8.9 -24.7,6.3 -4.5,-1.4 -8.8,0 -11.4,1.3 z"
   id="path322" />
			<path
   class="st8"
   d="m 458.8,237.7 c -8.5,-4.9 -15.3,-8.4 -15.4,-8.4 v 0 l 3.2,14 c 0,0 -9.6,15.6 -14.7,24.1 0.1,0.1 0.2,0.1 0.3,0.2 0,-0.1 26.6,-29.9 26.6,-29.9 v 0 c 0,0 0,0 0,0 z"
   id="path324" />
			<path
   class="st5"
   d="m 504.8,215.6 c 0,-10.3 -6.9,-14.5 -10,-15.8 -4.6,-0.2 -9.3,0.2 -13.4,1.9 1.3,12.1 18.7,28.3 29.2,31.9 0.1,0 0.2,0.1 0.2,0.1 -5,-3.9 3.3,-18.1 -6,-18.1 z"
   id="path326" />
			<path
   class="st4"
   d="m 469.4,244 v 0 c -3.6,-2.2 -7.2,-4.3 -10.6,-6.3 v 0 l -26.6,29.8 c -1.5,-0.8 -3.1,-1.3 -4.9,-1.3 v 10.5 0 c -4.5,1 -7.5,4.7 -7.5,10.4 h 7.5 v 9.3 c 1,1.1 2.5,1.8 4.1,1.9 l 38,-54.3 c 0,0 0,0 0,0 z"
   id="path328" />
			<path
   class="st5"
   d="m 508.5,243.6 c -10.4,6.5 -31,5.6 -31,5.6 0,0 0,0 0,0 0,0 5.8,3.6 11.9,9.4 L 530,265 c 0,0 -13.1,-13 -21.5,-21.4 z"
   id="path330" />
			<path
   class="st5"
   d="m 552.9,316.8 c -4.7,0 -18.9,-1.9 -18.9,-12.3 0,-6.1 0,-21.6 0,-21.6 l -10.8,17.7 -0.1,17.9 c 17.5,20.1 13.1,43 5.1,52.2 v 6.9 c 5,-0.1 9.9,-0.2 14.5,-0.4 l -1.2,-5.2 6.5,-11.3 c -0.1,0.1 -2.9,-36.1 4.9,-43.9 z"
   id="path332" />
			<path
   class="st7"
   d="m 469.4,244 -38,54.3 c 0.1,0 0.1,0 0.2,0 0.6,0 13.4,-9.5 13.4,-9.5 l 32.4,-39.6 c -2.5,-1.8 -5.2,-3.5 -8,-5.2 z"
   id="path334" />
			<path
   class="st9"
   d="m 481.4,201.6 c -14,7.3 -20.5,28.2 -38,27.6 0,0 19.9,10.3 34.1,19.9 0,0 36.8,1.7 36.8,-14.9 -9.4,0.1 -31.4,-18.9 -32.9,-32.6 z"
   id="path336" />
			<path
   class="st4"
   d="m 446.1,216.8 c 3,-7.9 4.2,-20.7 7.5,-33.4 l -15.9,-10.1 -3.8,-6.6 H 416 l -3.3,5.8 c 6.9,0.7 11.3,1.2 11.5,1.2 l 3.1,0.4 v 25 z"
   id="path338" />
			<path
   class="st7"
   d="m 467.6,156 v -10.7 l 11,4.9 c -0.1,-0.6 -0.3,-3.6 4.9,-6.5 -0.2,3.2 4.5,5.6 9.9,7.3 -5.6,13.1 -14,33.2 -12.1,50.7 -14,7.3 -20.5,28.2 -38,27.6 0,0 -4.5,-2.1 -6,-4.7 16.8,-0.1 7.8,-46 30.3,-68.6 z"
   id="path340" />
			<path
   class="st7"
   d="m 513.2,329.8 c 5.4,5.4 8.6,11.7 8.6,17.8 0,13.7 -9.3,18.7 -9.3,18.7 -11,-3.5 -14.1,7.6 -14.8,11.7 3.9,0 7.9,0 12.1,0 6,0 12.6,-0.1 18.3,-0.2 v -6.9 c 8,-9.2 12.4,-32.1 -5.1,-52.2 z"
   id="path342" />
			<path
   class="st7"
   d="m 502.5,310.7 c 0,-2.2 0,-6 0,-8.1 v 0 c 0,0.5 0,1 0,1.5 l -34.1,7.9 -22.5,44.4 c 6.8,0.6 12.8,1.1 18.1,1.7 l -2.2,-5.7 27.5,-39.2 z"
   id="path344" />
			<path
   class="st4"
   d="m 452.5,315.7 c -2.5,22.2 -17.1,29.2 -17.1,29.2 0,0 -2.8,-0.7 -5.7,-0.7 -6.4,0 -9.5,10.6 -9.5,10.6 3.4,0.2 6.9,0.4 10.5,0.6 3,0.2 5.9,0.3 8.8,0.5 2.2,0.2 4.3,0.3 6.4,0.5 L 468.5,312 Z"
   id="path346" />
			<path
   class="st5"
   d="M 502.5,290.3 487.9,279.6 447,313.4 c 0,0 2.1,3 5.5,2.4 l 50,-11.6 c 0,-5.4 0,-10.2 0,-13.9 z"
   id="path348" />
			<path
   class="st7"
   d="m 477.5,249.2 -11.6,14.3 36.6,26.9 c 0,-4.2 0,-6.9 0,-6.9 0,-2.3 -0.4,-4.6 -1.1,-6.8 -2.1,-7.1 -7.1,-13.3 -12,-18 -5.9,-5.8 -11.6,-9.3 -11.9,-9.5 z"
   id="path350" />
			<path
   class="st4"
   d="m 520.2,167.8 -9.4,-7 -1.6,-6.7 c 0,0 -8.5,-0.9 -15.7,-3.2 -5.6,13.1 -14,33.2 -12.1,50.7 13,-5.3 32.8,1.9 32.8,1.9 l -3.1,-8.4 4.6,-5.3 c 0,0 -13.5,1.6 -13.5,1.6 -4,-9 -0.7,-13.4 8,-13.4 3.6,0 6.4,1.8 6.4,1.8 l 1.9,-6.1 -1.6,-3 2.3,0.2 z m -20.8,-6 c -2.5,0.1 -4.5,-1.5 -4.6,-3.6 0,-0.2 0,-0.5 0.1,-0.7 3,0.2 6.2,0.6 8.8,1 -0.3,1.8 -2.1,3.2 -4.3,3.3 z"
   id="path352" />
			
				<linearGradient
   id="SVGID_2_"
   gradientUnits="userSpaceOnUse"
   x1="1548.424"
   y1="334.5097"
   x2="1548.4269"
   y2="334.5097"
   gradientTransform="translate(-1351.5137)">
				<stop
   offset="0"
   style="stop-color:#B98F16"
   id="stop354" />
				<stop
   offset="1"
   style="stop-color:#D2AD15"
   id="stop356" />
			</linearGradient>
			<polygon
   class="st10"
   points=""
   id="polygon359"
   style="fill:url(#SVGID_2_)" />
			<g
   id="g365">
				<path
   class="st5"
   d="m 122.3,234.4 c 0,-11 14.7,-7.5 22.8,-7.5 8.1,0 7.5,-10.4 7.5,-10.4 -2.7,0 -7.9,0 -15.3,0 -12.4,-0.1 -20.2,7.5 -15,17.9 z"
   id="path361" />
				<path
   class="st4"
   d="m 169.9,211.9 c -3.6,-3.6 -7.3,-5.6 -12.6,-5.6 -11.7,0 -28.7,-0.7 -31,-6.9 -2.1,2.2 -1.9,6.5 3.1,11.5 -13.2,0 -15.5,3 -16.9,5.8 -3.4,7.3 2.5,17.7 9.7,17.7 -5.2,-10.4 2.7,-17.9 14.9,-17.9 7.5,0 12.6,0 15.3,0 h 2.3 2.5 c 1.8,0 3.8,0.9 5.4,2.6 3.5,3.5 3.5,9.1 0,12.6 L 138.3,256 c -1.5,1.5 -2.6,3.3 -3.5,5.1 l 40,-30.7 c 1.8,-6.4 0.1,-13.5 -4.9,-18.5 z"
   id="path363" />
			</g>
			<path
   class="st8"
   d="m 198.5,188.1 c 0.2,-0.7 0.3,-1.4 0.4,-2.1 -3.5,-4.1 -9.4,-5.8 -17.4,-2.4 -10,4.2 -19.1,-3.1 -19.1,-3.1 6.9,13.2 16.4,8.9 24.7,6.3 4.6,-1.4 8.8,0 11.4,1.3 z"
   id="path367" />
			<path
   class="st4"
   d="m 240.7,237.7 c 8.5,-4.9 15.3,-8.4 15.4,-8.4 v 0 l -3.2,14 c 0,0 9.6,15.6 14.7,24.1 -0.1,0.1 -0.2,0.1 -0.3,0.2 l -26.6,-29.9 v 0 c -0.1,0 0,0 0,0 z"
   id="path369" />
			<path
   class="st5"
   d="m 204.7,199.7 c -3.1,1.4 -10,5.6 -10,15.8 -9.4,0 -1.1,14.2 -6.1,18.1 0.1,0 0.2,-0.1 0.2,-0.1 10.5,-3.6 27.9,-19.8 29.2,-31.9 -4,-1.6 -8.7,-2.1 -13.3,-1.9 z"
   id="path371" />
			<path
   class="st7"
   d="m 230.1,243.9 v 0 c 3.6,-2.2 7.2,-4.3 10.6,-6.3 0,0 0,0 0,0 l 26.6,29.8 c 1.5,-0.8 3.1,-1.3 4.9,-1.3 v 10.5 0 c 4.5,1 7.5,4.7 7.5,10.4 h -7.5 v 9.3 c -1,1.1 -2.5,1.8 -4.1,1.9 l -38,-54.3 c -0.1,0.1 0,0.1 0,0 z"
   id="path373" />
			<path
   class="st4"
   d="m 191,243.6 c 10.4,6.5 31,5.6 31,5.6 0,0 0,0 0,0 0,0 -5.8,3.6 -11.9,9.4 l -40.7,6.5 c 0.1,-0.1 13.2,-13.2 21.6,-21.5 z"
   id="path375" />
			<path
   class="st9"
   d="m 146.6,316.8 c 4.7,0 18.9,-1.9 18.9,-12.3 0,-6.1 0,-21.6 0,-21.6 l 10.8,17.7 0.1,17.9 c -17.5,20.1 -13.1,43 -5.1,52.2 v 6.9 c -5,-0.1 -9.9,-0.2 -14.5,-0.4 l 1.2,-5.2 -6.5,-11.3 c 0,0.1 2.8,-36.1 -4.9,-43.9 z"
   id="path377" />
			<path
   class="st4"
   d="m 171.3,377.7 c 5.7,0.1 12.2,0.2 18.3,0.2 4.2,0 8.3,0 12.1,0 -0.8,-4.1 -3.8,-15.2 -14.8,-11.7 0,0 -9.3,-5 -9.3,-18.7 0,-6.1 3.2,-12.3 8.6,-17.8 l -9.8,-11.2 c -17.5,20.1 -13.1,43 -5.1,52.2 z"
   id="path379" />
			<path
   class="st5"
   d="m 230,244 38,54.3 c -0.1,0 -0.1,0 -0.2,0 -0.6,0 -13.4,-9.5 -13.4,-9.5 L 222,249.1 c 2.5,-1.7 5.2,-3.4 8,-5.1 z"
   id="path381" />
			<path
   class="st9"
   d="m 185.2,234.3 c 0,16.6 36.8,14.9 36.8,14.9 14.2,-9.6 34,-19.9 34.1,-19.9 -17.5,0.6 -23.9,-20.4 -38,-27.6 -1.5,13.6 -23.6,32.6 -32.9,32.6 z"
   id="path383" />
			<path
   class="st5"
   d="m 253.4,216.8 c -3,-7.9 -4.2,-20.7 -7.5,-33.4 l 15.9,-10.1 3.8,-6.6 h 17.9 l 3.3,5.8 c -6.9,0.7 -11.3,1.2 -11.5,1.2 l -3.1,0.4 v 25 z"
   id="path385" />
			<path
   class="st4"
   d="m 231.8,156 v -10.7 l -11,4.9 c 0.1,-0.6 0.3,-3.6 -4.9,-6.5 0.2,3.2 -4.5,5.6 -9.9,7.3 5.6,13.1 14,33.2 12.1,50.7 14,7.3 20.5,28.2 38,27.6 0,0 4.5,-2.1 6,-4.7 -16.7,-0.1 -7.7,-46 -30.3,-68.6 z"
   id="path387" />
			<path
   class="st7"
   d="m 210.1,258.5 c 0,0 0,0 0,0 v 0 c 0,0 0,0 0,0 z m -71.6,24.4 c 3.6,3.6 8.4,5.6 13.5,5.6 5.1,0 9.9,-2 13.5,-5.6 l 10.8,17.7 0.1,17.9 20.5,23.5 c 0,-6.5 0.1,-58.7 0.1,-58.7 0,-2.3 0.4,-4.6 1.1,-6.8 2.1,-7.1 7.1,-13.3 12,-18 l -40.7,6.5 -8.3,8.2 c 0,0 -9,9 -15.5,2.5 -3.5,-3.5 -3.5,-9.1 0,-12.6 l 24.3,-24.3 c 2.4,-2.4 4,-5.3 4.9,-8.4 l -40,30.7 c -3.4,7.1 -2.2,15.9 3.7,21.8 z"
   id="path389" />
			<path
   class="st9"
   d="m 197,310.6 c 0,-2.2 0,-6 0,-8.1 v 0 c 0,0.5 0,1 0,1.5 l 34,8 22.5,44.4 c -6.8,0.6 -12.8,1.1 -18.1,1.7 l 2.2,-5.7 -27.5,-39.2 z"
   id="path391" />
			<path
   class="st5"
   d="m 246.9,315.7 c 2.5,22.2 17.1,29.2 17.1,29.2 0,0 2.8,-0.7 5.7,-0.7 6.4,0 9.5,10.6 9.5,10.6 -3.4,0.2 -6.9,0.4 -10.5,0.6 -3,0.2 -5.9,0.3 -8.8,0.5 -2.2,0.2 -4.3,0.3 -6.4,0.5 L 231,312 Z"
   id="path393" />
			<path
   class="st4"
   d="m 197,290.3 14.6,-10.7 40.8,33.8 c 0,0 -2.1,3 -5.5,2.4 l -50,-11.6 c 0.1,-5.4 0.1,-10.3 0.1,-13.9 z"
   id="path395" />
			<path
   class="st8"
   d="m 222,249.1 11.6,14.3 -36.6,26.9 c 0,-4.2 0,-6.9 0,-6.9 0,-2.3 0.4,-4.6 1.1,-6.8 2.1,-7.1 7.1,-13.3 12,-18 5.9,-5.7 11.5,-9.2 11.9,-9.5 z"
   id="path397" />
			<path
   class="st7"
   d="m 206,150.9 c -7.2,2.2 -15.7,3.2 -15.7,3.2 l -1.6,6.7 -9.4,7 1,3 2.3,-0.2 -1.6,3 1.9,6.1 c 0,0 2.8,-1.8 6.4,-1.8 8.7,0 12,4.4 8,13.4 0,0 -13.5,-1.6 -13.5,-1.6 l 4.6,5.3 -3.1,8.4 c 0,0 19.8,-7.2 32.8,-1.9 C 220,184.1 211.6,164 206,150.9 Z m -6,10.8 c -2.2,-0.1 -4,-1.5 -4.3,-3.2 2.6,-0.4 5.8,-0.8 8.8,-1 0,0.2 0.1,0.5 0.1,0.7 0,2 -2.1,3.6 -4.6,3.5 z"
   id="path399" />
			<path
   class="st5"
   d="m 419.9,307.7 c 0,39.4 -70.1,53.3 -70.1,53.3 0,0 -70.1,-13.9 -70.1,-53.3 0,-35.4 0,-127 0,-127 0,0 23.7,-4.5 70.1,-4.5 46.4,0 70.1,4.5 70.1,4.5 0,0 0,94.4 0,127 z"
   id="path401" />
			<path
   class="st8"
   d="m 349.7,361 c 0,0 70.1,-13.9 70.1,-53.3 0,-32.6 0,-127 0,-127 0,0 -23.7,-4.5 -70.1,-4.5 -10.9,0 -20.6,0.2 -29,0.6 63.3,2.5 88.6,11.1 88.6,11.1 0,0 0.1,88.6 0.1,121.1 0,32.5 -59.7,52 -59.7,52 z"
   id="path403" />
			<path
   class="st11"
   d="m 363.9,253.1 -5.4,-0.7 -1.7,2.2 -12.5,-8 c 1.3,6.3 4.7,18.3 13.5,28.6 5.9,4.3 12,8.7 16.9,12.2 -0.4,-20.6 -7.4,-32 -9.2,-36.6 z"
   id="path405" />
			<g
   id="g409">
				<path
   class="st3"
   d="m 338.2,261.1 c -6.6,-4.7 -4.4,-14 -0.1,-18.3 l 18.7,11.9 1.7,-2.2 5.4,0.7 1.7,-2.2 13.9,2.4 c -2.6,-4.1 -6.9,-10.8 -13.4,-15.3 l 1.7,-2.2 c -3.3,-1.6 -11,-2.8 -19.8,-2.8 -6.6,0 -13.5,0 -13.5,0 l 9.5,-27.2 c 2.5,-7.3 -2,-13.2 -6.9,-13.7 -7.4,-0.8 -10.5,7.2 -10.5,7.2 l 8.1,8.3 c 0.2,0 -10.5,25 -10.5,25 -1.1,2.6 -1.8,6 -1.8,9.6 0,7 3.1,14.1 9.6,20.4 5.5,5.4 29.4,24.1 29.4,24.1 l 1.9,-2.6 11.6,3.4 c -0.2,-0.1 -34.8,-25.2 -36.7,-26.5 z"
   id="path407" />
			</g>
			<path
   class="st12"
   d="m 344.3,246.7 -6.2,-3.9 c -4.3,4.4 -6.5,13.6 0.1,18.3 2,1.4 10.5,7.6 19.6,14.2 C 349,265 345.6,253 344.3,246.7 Z"
   id="path411" />
			<path
   d="m 379.4,253.3 -13.9,-2.4 c 1.8,4.6 8.8,15.9 9.2,36.6 5.5,4 9.4,6.8 9.4,6.8 l 2.7,-3.6 7.2,5 c -0.4,-3.3 -0.9,-6.4 -1.6,-9.3 -3.1,-14.7 -8.2,-25.6 -13,-33.1 z"
   id="path413" />
			<path
   class="st11"
   d="m 367.3,338.5 c -0.3,-0.8 -0.9,-1.5 -2,-1.5 h -4 v -19.1 l -3.3,1.5 v 17.5 h -6.1 c -0.7,0 -2.1,1 -2.5,1 h -2.7 c -1.1,0 -1.7,0.7 -2,1.5 l -0.2,0.6 -0.1,0.8 c 0,0.2 0,0.4 0,0.4 h 6.6 l 1.4,-1 h 2.8 c -1.7,1.1 -3.6,2.2 -4.3,2.6 -0.9,0.6 -1.1,1.5 -0.9,2.3 l 0.1,0.6 0.3,0.7 c 0.1,0.2 0.2,0.4 0.2,0.4 l 11.2,-6.6 h 6.1 c 0,0 0,-0.2 0,-0.4 l -0.2,-0.8 z"
   id="path415" />
			<path
   class="st12"
   d="m 309.3,267.8 -0.6,0.8 0.4,5.4 1,-1.4 0.7,0.1 4.3,7.4 c 0,0 0.1,0 0.1,-0.1 l 0.5,-0.4 0.5,-0.4 c 0.6,-0.7 1.1,-1.6 0.5,-2.7 -0.2,-0.3 -0.4,-0.8 -0.8,-1.4 l 12.6,6 5.2,-1.2 -20.7,-9.8 c -0.5,-0.8 -1.1,-2 -1.1,-2 -0.3,-0.5 -1.6,-0.8 -2.6,-0.3 z"
   id="path417" />
			<polygon
   points="291.4,207.6 334.6,207.6 326.4,199.3 "
   id="polygon419" />
			<path
   class="st11"
   d="m 308,269.5 -6.7,0.9 c 0,0 -2,2.6 -3,3.9 -0.7,0.9 -0.4,1.8 0,2.5 l 0.4,0.5 0.5,0.5 c 0.2,0.2 0.3,0.3 0.3,0.3 l 3.4,-4.6 2.8,-0.4 c -1.3,1.8 -2.7,3.7 -3.2,4.3 -0.7,0.9 -0.4,1.8 0,2.5 l 0.4,0.6 0.4,0.5 c 0.2,0.2 0.3,0.3 0.3,0.3 l 5.4,-7.3 -0.4,-5.4 z"
   id="path421" />
			<path
   class="st11"
   d="m 353.3,280.3 c -1,-0.8 -2.2,-1.7 -3.3,-2.6 v 9.6 l -0.5,0.1 -15.7,-7.5 -5.2,1.2 19.6,9.3 2,2.6 3.2,-0.5 1.2,-3.1 -1.4,-1.8 v -7.3 z"
   id="path423" />
			<path
   d="m 339.2,199.2 c 0,0 -3.8,1.7 -4.7,1.7 -0.9,0 -1.8,-0.8 -1.8,-1.7 0,-0.9 0.9,-1.7 1.8,-1.7 0.9,0.1 4.7,1.7 4.7,1.7 z"
   id="path425" />
			<path
   d="m 300.7,220.1 c -2.4,-4.2 0.4,-6.7 2.3,-8.7 1.4,-1.4 2.6,-2.6 2.6,-4.4 0,-2.4 -1.3,-2.8 -4.6,-3.3 -2,-0.3 -4,-0.6 -5.1,-2.1 -0.7,-0.8 -0.9,-1.8 -0.8,-2.9 0.3,-2.3 2.7,-4 2.9,-4.2 0.7,-0.5 1.6,-0.3 2,0.4 0.5,0.7 0.3,1.6 -0.4,2 -0.5,0.4 -1.6,1.4 -1.7,2.2 0,0.2 0,0.4 0.2,0.6 0.4,0.6 1.9,0.8 3.3,1 2.9,0.4 7.2,1 7.1,6.2 0,3 -1.9,4.8 -3.5,6.5 -1.8,1.9 -3.3,3.2 -2.3,5.8 0.7,1.7 3.6,2.6 3,3.6 -0.4,1.1 -3.8,-0.7 -5,-2.7 z"
   id="path427" />
			<path
   d="m 361.3,286.6 c 0,0 -1.3,-1 -3.3,-2.6 v 6 0 l -1.6,2.9 1.6,2.8 v 23.7 l 3.3,-1.5 v -22.1 l 1.6,-2.9 -1.6,-2.9 z"
   id="path429" />
			<line
   class="st12"
   x1="385.79999"
   y1="292.10001"
   x2="384.20001"
   y2="294.29999"
   id="line431" />
			<path
   class="st12"
   d="m 385.2,248 c -5,-5.2 -11,-9.4 -17.6,-12.2 L 366,238 c 6.5,4.5 10.9,11.1 13.4,15.3 4.8,7.5 9.9,18.4 13,33 0.7,2.9 1.2,6 1.6,9.3 l 6.9,4.9 C 404.5,280.4 397.8,261 385.2,248 Z"
   id="path433" />
			<path
   class="st4"
   d="m 489.3,258.6 v 0 c 0,0 0,0 0,0 0,0 0,0 0,0 z m 75.3,2.5 -40,-30.7 c 0.8,3.1 2.5,6 4.9,8.4 l 24.3,24.3 c 3.5,3.5 3.5,9.1 0,12.6 -6.5,6.5 -15.5,-2.5 -15.5,-2.5 L 530,265 489.3,258.5 c 4.9,4.7 9.9,10.9 12,18 0.7,2.2 1.1,4.5 1.1,6.8 0,0 0.1,52.1 0.1,58.7 l 20.5,-23.5 0.1,-17.9 10.8,-17.7 c 3.6,3.6 8.4,5.6 13.5,5.6 5.1,0 9.9,-2 13.5,-5.6 5.9,-5.9 7.1,-14.7 3.7,-21.8 z"
   id="path435" />
		</g>
	</g>
</g>
</svg>
